<?xml version="1.0" standalone="no"?>
<!DOCTYPE svg PUBLIC "-//W3C//DTD SVG 20010904//EN"
 "http://www.w3.org/TR/2001/REC-SVG-20010904/DTD/svg10.dtd">
<svg version="1.0" xmlns="http://www.w3.org/2000/svg"
 width="700.000000pt" height="700.000000pt" viewBox="0 0 700.000000 700.000000"
 preserveAspectRatio="xMidYMid meet">
<metadata>
Created by potrace 1.11, written by Peter Selinger 2001-2013
</metadata>
<g transform="translate(0.000000,700.000000) scale(0.100000,-0.100000)"
fill="#ffffff" stroke="none">
<path d="M1355 6989 c-441 -36 -731 -159 -971 -411 -213 -225 -322 -476 -366
-843 -19 -161 -19 -4309 0 -4470 27 -229 67 -374 148 -532 197 -389 552 -637
1004 -702 190 -28 428 -31 2330 -31 1902 0 2140 3 2330 31 615 88 1051 524
1139 1139 28 194 31 412 31 2325 0 2210 -1 2249 -65 2505 -123 488 -515 857
-1015 954 -209 40 -189 40 -2360 42 -1158 1 -2150 -2 -2205 -7z m4470 -2697
c151 -32 236 -90 265 -178 13 -37 9 -179 -5 -216 -7 -17 -36 -18 -424 -18
-512 0 -549 -5 -636 -82 -97 -85 -267 -497 -252 -611 11 -83 85 -113 258 -105
145 7 197 42 253 171 l26 57 -155 0 c-85 0 -155 1 -155 3 0 2 24 58 54 124 87
194 117 231 207 253 29 7 170 10 411 8 l367 -3 -75 -180 c-88 -213 -186 -415
-246 -505 -56 -86 -159 -188 -230 -228 -165 -95 -468 -139 -770 -112 -278 24
-437 99 -505 238 -26 54 -28 64 -27 182 1 106 5 139 28 215 60 199 207 524
298 658 90 133 209 235 329 282 148 58 300 75 639 70 204 -3 273 -8 345 -23z
m573 1 c27 -17 52 -70 52 -109 0 -40 -30 -93 -61 -109 -37 -20 -119 -19 -147
1 -65 45 -69 163 -8 214 37 30 119 32 164 3z m-3838 -20 c-1 -16 -49 -377
-108 -803 l-107 -775 -258 -3 c-141 -1 -257 0 -257 3 0 7 28 202 35 243 l6 32
-272 -2 -272 -3 -94 -137 -94 -138 -296 0 -295 0 24 33 c14 17 240 331 503
697 273 379 505 691 540 726 130 132 212 150 673 153 l272 1 0 -27z m1890 16
c0 -23 -153 -366 -173 -388 -37 -39 -65 -44 -265 -50 l-193 -6 -243 -575 -243
-575 -287 -3 c-157 -1 -286 1 -286 5 0 5 110 265 243 578 l242 570 -292 3
-292 2 33 78 c48 111 99 211 134 258 38 52 117 92 203 103 100 13 1419 13
1419 0z"/>
<path d="M6283 4293 c-12 -2 -34 -18 -49 -36 -23 -27 -26 -38 -21 -81 6 -68
38 -96 108 -96 39 0 55 5 74 24 53 53 37 154 -29 181 -36 15 -43 16 -83 8z
m75 -45 c17 -17 15 -58 -3 -65 -14 -5 -14 -8 0 -30 23 -35 8 -44 -19 -10 -27
34 -36 34 -36 2 0 -16 -6 -25 -15 -25 -12 0 -15 14 -15 63 0 35 3 67 7 70 11
12 68 8 81 -5z"/>
<path d="M6300 4215 c0 -18 5 -25 19 -25 20 0 31 17 24 38 -3 6 -13 12 -24 12
-14 0 -19 -7 -19 -25z"/>
<path d="M1800 3658 l-200 -293 161 -3 c89 -1 163 -1 165 0 1 2 21 125 43 273
23 149 43 280 46 293 3 12 1 22 -4 22 -6 0 -100 -132 -211 -292z"/>
</g>
</svg>
